<svg width="3573" height="7070" viewBox="0 0 3573 7070" fill="none" xmlns="http://www.w3.org/2000/svg">
<rect opacity="0.5" x="2418" y="1556.65" width="1618.49" height="506" rx="253" transform="rotate(-60 2418 1556.65)" fill="url(#paint0_linear_501_769)"/>
<g filter="url(#filter0_dd_501_769)">
<path fill-rule="evenodd" clip-rule="evenodd" d="M1045 1422C1047.76 1422 1050 1419.76 1050 1417C1050 1414.24 1047.76 1412 1045 1412C1042.24 1412 1040 1414.24 1040 1417C1040 1419.76 1042.24 1422 1045 1422ZM1045 1472C1047.76 1472 1050 1469.76 1050 1467C1050 1464.24 1047.76 1462 1045 1462C1042.24 1462 1040 1464.24 1040 1467C1040 1469.76 1042.24 1472 1045 1472ZM1050 1517C1050 1519.76 1047.76 1522 1045 1522C1042.24 1522 1040 1519.76 1040 1517C1040 1514.24 1042.24 1512 1045 1512C1047.76 1512 1050 1514.24 1050 1517ZM1045 1572C1047.76 1572 1050 1569.76 1050 1567C1050 1564.24 1047.76 1562 1045 1562C1042.24 1562 1040 1564.24 1040 1567C1040 1569.76 1042.24 1572 1045 1572ZM1050 1617C1050 1619.76 1047.76 1622 1045 1622C1042.24 1622 1040 1619.76 1040 1617C1040 1614.24 1042.24 1612 1045 1612C1047.76 1612 1050 1614.24 1050 1617ZM1045 1672C1047.76 1672 1050 1669.76 1050 1667C1050 1664.24 1047.76 1662 1045 1662C1042.24 1662 1040 1664.24 1040 1667C1040 1669.76 1042.24 1672 1045 1672ZM1100 1417C1100 1419.76 1097.76 1422 1095 1422C1092.24 1422 1090 1419.76 1090 1417C1090 1414.24 1092.24 1412 1095 1412C1097.76 1412 1100 1414.24 1100 1417ZM1095 1472C1097.76 1472 1100 1469.76 1100 1467C1100 1464.24 1097.76 1462 1095 1462C1092.24 1462 1090 1464.24 1090 1467C1090 1469.76 1092.24 1472 1095 1472ZM1100 1517C1100 1519.76 1097.76 1522 1095 1522C1092.24 1522 1090 1519.76 1090 1517C1090 1514.24 1092.24 1512 1095 1512C1097.76 1512 1100 1514.24 1100 1517ZM1095 1572C1097.76 1572 1100 1569.76 1100 1567C1100 1564.24 1097.76 1562 1095 1562C1092.24 1562 1090 1564.24 1090 1567C1090 1569.76 1092.24 1572 1095 1572ZM1100 1617C1100 1619.76 1097.76 1622 1095 1622C1092.24 1622 1090 1619.76 1090 1617C1090 1614.24 1092.24 1612 1095 1612C1097.76 1612 1100 1614.24 1100 1617ZM1095 1672C1097.76 1672 1100 1669.76 1100 1667C1100 1664.24 1097.76 1662 1095 1662C1092.24 1662 1090 1664.24 1090 1667C1090 1669.76 1092.24 1672 1095 1672Z" fill="#FD5956"/>
</g>
<g filter="url(#filter1_dd_501_769)">
<circle cx="2514" cy="2311" r="25" fill="#FD5956"/>
</g>
<path opacity="0.5" d="M137.498 1671.29C258.506 1601.43 413.238 1642.89 483.102 1763.9L1065.85 2773.24C1121.07 2868.9 1088.3 2991.22 992.641 3046.44L727.637 3199.44L44.8932 2016.9C-24.9708 1895.89 16.4897 1741.16 137.498 1671.29Z" fill="url(#paint1_linear_501_769)"/>
<path opacity="0.5" d="M127.498 3933.29C248.506 3863.43 403.238 3904.89 473.102 4025.9L1055.85 5035.24C1111.07 5130.9 1078.3 5253.22 982.641 5308.44L717.637 5461.44L34.8932 4278.9C-34.9708 4157.89 6.48973 4003.16 127.498 3933.29Z" fill="url(#paint2_linear_501_769)"/>
<g filter="url(#filter2_dd_501_769)">
<path d="M2337.05 5201.68C2337.05 5201.68 2359.6 5181.79 2376.85 5191.75C2394.09 5201.71 2388.65 5231.48 2405.9 5241.43C2423.14 5251.39 2446.2 5231.79 2463.45 5241.75C2480.69 5251.71 2475.26 5281.48 2492.5 5291.43C2509.75 5301.39 2521.47 5275.25 2550.05 5291.75C2578.63 5308.25 2593.45 5337.59 2593.45 5337.59" stroke="#FD5956" stroke-width="4" stroke-linecap="round" stroke-dasharray="12 12"/>
</g>
<rect opacity="0.5" x="2418" y="3658.65" width="1618.49" height="506" rx="253" transform="rotate(-60 2418 3658.65)" fill="url(#paint3_linear_501_769)"/>
<g opacity="0.14">
<path d="M2383.36 569.01C2379.83 572.707 2374.19 573.632 2366.42 571.783C2358.65 570.304 2351.95 566.791 2346.3 561.244C2340.65 555.697 2339.24 549.226 2342.06 541.831C2359.71 509.66 2380.54 473.606 2404.54 433.669C2428.2 393.733 2453.26 356.94 2479.74 323.29C2506.21 289.639 2532.51 265.788 2558.63 251.737C2581.23 242.492 2602.58 244.711 2622.7 258.393C2642.47 272.444 2653.94 288.9 2657.12 307.759C2657.83 319.961 2656.24 335.862 2652.36 355.461C2648.47 375.429 2644.06 393.918 2639.12 410.928C2650.41 396.876 2663.12 379.681 2677.24 359.343C2703.01 319.407 2733.55 281.319 2768.85 245.081C2778.38 237.315 2791.97 235.651 2809.62 240.089C2827.27 244.526 2843.33 252.661 2857.81 264.494C2872.28 276.327 2879.34 289.454 2878.99 303.876C2872.63 361.192 2853.75 420.542 2822.33 481.926C2790.91 543.31 2756.14 591.012 2718.02 625.032C2696.84 642.041 2677.6 647.958 2660.3 642.781C2642.65 637.604 2624.82 628.175 2606.82 614.493C2600.46 610.055 2593.76 605.433 2586.7 600.626C2577.87 610.98 2569.05 621.703 2560.22 632.797C2554.22 640.932 2547.87 649.067 2541.16 657.203C2533.04 665.338 2521.74 667.002 2507.27 662.195C2492.44 657.387 2479.91 649.252 2469.67 637.789C2459.44 626.696 2456.79 615.602 2461.73 604.509C2507.98 519.829 2537.28 454.932 2549.63 409.818C2561.63 364.705 2562.16 341.963 2551.22 341.594C2523.33 343.443 2467.38 419.248 2383.36 569.01ZM2634.88 526.854C2632.76 530.182 2631.71 535.359 2631.71 542.385C2631.71 549.411 2632.94 555.882 2635.41 561.799C2637.88 568.085 2641.59 571.783 2646.53 572.892C2651.47 574.371 2657.83 571.043 2665.59 562.908C2697.01 527.779 2723.31 487.473 2744.49 441.989C2765.67 396.876 2776.97 364.705 2778.38 345.476C2761.08 360.637 2737.43 387.632 2707.43 426.459C2677.42 465.286 2653.24 498.751 2634.88 526.854Z" fill="#FDC1C5"/>
<path d="M2088.96 562.354C2086.84 564.942 2083.66 565.497 2079.42 564.018C2075.19 562.908 2070.78 560.505 2066.19 556.807C2061.6 553.109 2058.07 549.226 2055.6 545.159C2052.77 541.461 2052.07 538.318 2053.48 535.729C2059.13 526.115 2065.48 514.837 2072.54 501.894C2089.13 471.572 2108.9 438.107 2131.85 401.498C2154.44 364.89 2179.33 331.61 2206.51 301.657C2233.69 272.075 2262.28 252.476 2292.29 242.862C2309.94 238.794 2330.59 240.458 2354.24 247.854C2377.89 255.25 2399.07 266.158 2417.78 280.58C2436.49 295.371 2447.08 311.272 2449.55 328.282C2452.38 368.588 2444.43 415.365 2425.73 468.614C2407.02 521.862 2382.84 569.749 2353.18 612.274C2323.18 654.799 2292.99 680.314 2262.64 688.819C2256.28 690.298 2250.28 689.928 2244.63 687.71C2238.98 685.491 2232.1 682.163 2223.98 677.725C2219.75 675.507 2214.8 672.918 2209.16 669.96C2207.74 672.179 2205.98 674.952 2203.86 678.28C2199.27 684.936 2194.68 691.407 2190.09 697.694C2185.5 704.35 2182.15 708.232 2180.03 709.342C2168.03 713.779 2154.97 711.561 2140.85 702.686C2126.37 693.811 2115.08 682.902 2106.96 669.96C2098.49 657.387 2097.08 647.773 2102.72 641.117C2130.26 614.123 2152.32 583.986 2168.91 550.705C2185.15 517.795 2191.33 492.465 2187.45 474.715C2192.03 469.538 2199.98 468.429 2211.27 471.387C2222.22 474.345 2232.81 480.632 2243.04 490.246C2252.93 500.23 2258.4 512.803 2259.46 527.964C2259.11 541.646 2255.58 558.101 2248.87 577.33C2241.81 596.558 2235.1 612.089 2228.75 623.922C2243.93 615.787 2260.34 594.894 2277.99 561.244C2295.29 527.594 2309.76 490.801 2321.41 450.864C2333.06 411.298 2338 378.017 2336.24 351.023C2334.12 324.399 2321.24 313.675 2297.58 318.852C2269.7 327.727 2241.63 349.729 2213.39 384.858C2185.15 419.988 2156.03 460.664 2126.02 506.886C2114.02 525.375 2101.66 543.864 2088.96 562.354Z" fill="#FDC1C5"/>
<path d="M1786.08 562.354C1783.96 564.942 1780.78 565.497 1776.54 564.018C1772.31 562.908 1767.9 560.505 1763.31 556.807C1758.72 553.109 1755.19 549.226 1752.72 545.159C1749.89 541.461 1749.19 538.318 1750.6 535.729C1756.25 526.115 1762.6 514.837 1769.66 501.894C1786.25 471.572 1806.02 438.107 1828.97 401.498C1851.56 364.89 1876.45 331.61 1903.63 301.657C1930.81 272.075 1959.4 252.476 1989.41 242.862C2007.06 238.794 2027.71 240.458 2051.36 247.854C2075.01 255.25 2096.19 266.158 2114.9 280.58C2133.61 295.371 2144.2 311.272 2146.67 328.282C2149.5 368.588 2141.55 415.365 2122.84 468.614C2104.14 521.862 2079.95 569.749 2050.3 612.274C2020.3 654.799 1990.11 680.314 1959.76 688.819C1953.4 690.298 1947.4 689.928 1941.75 687.71C1936.1 685.491 1929.22 682.163 1921.1 677.726C1916.86 675.507 1911.92 672.918 1906.27 669.96C1904.86 672.179 1903.1 674.952 1900.98 678.28C1896.39 684.936 1891.8 691.407 1887.21 697.694C1882.62 704.35 1879.27 708.233 1877.15 709.342C1865.15 713.779 1852.09 711.561 1837.97 702.686C1823.49 693.811 1812.2 682.902 1804.08 669.96C1795.61 657.388 1794.19 647.773 1799.84 641.117C1827.38 614.123 1849.44 583.986 1866.03 550.705C1882.27 517.795 1888.45 492.465 1884.56 474.715C1889.15 469.538 1897.1 468.429 1908.39 471.387C1919.34 474.345 1929.93 480.632 1940.16 490.246C1950.05 500.23 1955.52 512.803 1956.58 527.964C1956.23 541.646 1952.7 558.101 1945.99 577.33C1938.93 596.558 1932.22 612.089 1925.87 623.922C1941.05 615.787 1957.46 594.894 1975.11 561.244C1992.41 527.594 2006.88 490.801 2018.53 450.864C2030.18 411.298 2035.12 378.017 2033.36 351.023C2031.24 324.399 2018.35 313.675 1994.7 318.852C1966.82 327.727 1938.75 349.729 1910.51 384.858C1882.27 419.988 1853.15 460.664 1823.14 506.886C1811.14 525.375 1798.78 543.864 1786.08 562.354Z" fill="#FDC1C5"/>
<path d="M1240.68 722.654C1199.38 700.837 1167.08 676.431 1143.78 649.437C1120.13 622.813 1112.54 582.322 1121.01 527.964C1126.3 502.079 1137.42 463.807 1154.37 413.147C1169.9 365.815 1184.55 316.818 1198.32 266.158C1212.08 215.868 1218.97 173.158 1218.97 138.029C1218.62 102.53 1205.73 83.4861 1180.31 80.8976C1189.14 64.6272 1205.38 59.4503 1229.03 65.3668C1252.33 70.9135 1273.33 86.2595 1292.04 111.405C1310.75 136.55 1317.1 170.015 1311.1 211.8C1298.75 268.007 1279.86 331.055 1254.45 400.944C1239.27 443.839 1227.62 479.707 1219.5 508.55C1208.2 547.377 1206.26 579.548 1213.67 605.063C1221.09 630.948 1241.91 650.547 1276.16 663.859C1276.86 595.449 1297.69 514.837 1338.64 422.021C1379.23 329.206 1425.3 265.234 1476.84 230.105C1490.96 222.709 1509.14 221.784 1531.38 227.331C1553.27 232.878 1573.56 242.677 1592.27 256.729C1610.63 270.781 1621.75 286.681 1625.63 304.431C1628.81 334.013 1625.28 370.067 1615.04 412.592C1626.69 398.17 1639.75 380.421 1654.23 359.343C1682.11 316.818 1714.24 276.697 1750.6 238.979C1760.48 231.214 1774.43 229.55 1792.43 233.987C1810.43 238.425 1826.67 246.745 1841.14 258.948C1855.97 271.15 1863.21 284.462 1862.85 298.884C1856.5 357.31 1837.26 417.769 1805.14 480.262C1773.37 542.755 1737.89 591.381 1698.71 626.141C1677.17 643.521 1657.58 649.437 1639.93 643.89C1621.93 638.714 1603.92 629.099 1585.92 615.048C1579.21 610.61 1572.33 605.988 1565.27 601.181C1562.09 605.988 1558.39 611.904 1554.15 618.93C1549.91 625.586 1545.68 632.057 1541.44 638.344C1537.21 644.63 1533.5 649.622 1530.32 653.32C1521.5 661.455 1509.85 662.749 1495.37 657.203C1480.55 652.026 1468.19 643.706 1458.31 632.242C1448.07 620.779 1445.6 609.501 1450.89 598.407C1493.61 522.972 1519.38 458.26 1528.2 404.272C1536.68 350.653 1535.79 318.852 1525.56 308.868C1513.55 301.103 1494.84 313.675 1469.43 346.586C1443.66 379.866 1419.3 422.021 1396.35 473.051C1373.41 524.081 1359.82 572.892 1355.58 619.485C1350.99 666.077 1364.05 698.988 1394.77 718.217C1403.59 724.133 1406.24 733.563 1402.71 746.505C1399.18 759.447 1392.3 772.205 1382.06 784.777C1371.47 797.72 1360.52 806.779 1349.23 811.956C1337.58 817.503 1328.22 815.469 1321.16 805.855C1315.87 797.72 1311.46 790.694 1307.93 784.777C1301.93 773.684 1294.87 763.7 1286.75 754.825C1278.27 745.95 1262.92 735.227 1240.68 722.654ZM1618.22 525.191C1616.46 528.519 1615.4 533.695 1615.04 540.721C1614.34 548.117 1615.04 554.958 1617.16 561.244C1618.93 567.9 1622.1 571.783 1626.69 572.892C1631.28 574.371 1637.64 571.043 1645.75 562.908C1677.53 527.039 1704.18 485.994 1725.71 439.771C1747.24 393.548 1758.72 360.638 1760.13 341.039C1743.19 356.57 1720.06 383.934 1690.76 423.131C1661.11 462.697 1636.93 496.717 1618.22 525.191Z" fill="#FDC1C5"/>
<path d="M777.356 403.163C770.296 403.902 765.707 400.389 763.589 392.624C761.47 385.228 761.47 377.463 763.589 369.328C765.353 361.562 768.707 357.125 773.649 356.015C788.829 353.797 803.655 353.242 818.128 354.351C832.602 355.461 848.84 359.159 866.843 365.445C868.255 362.487 869.844 359.159 871.609 355.461C879.375 336.602 891.024 314.23 906.557 288.345C921.736 262.461 940.798 242.307 963.744 227.886C979.629 220.121 999.398 219.196 1023.05 225.113C1046.35 231.029 1068.06 241.383 1088.18 256.174C1108.3 271.335 1121.36 288.53 1127.36 307.759C1133.36 334.383 1132.83 363.226 1125.77 394.288C1118.71 425.719 1108.48 454.932 1095.06 481.926C1082 508.92 1068.76 529.073 1055.35 542.385C1050.76 547.193 1045.64 551.63 1039.99 555.698C1037.52 557.546 1035.05 559.395 1032.58 561.244C1035.4 576.775 1036.99 592.306 1037.35 607.837C1037.35 623.368 1033.99 638.159 1027.29 652.211C1017.4 668.111 998.162 676.062 969.569 676.062C940.622 676.431 912.381 667.557 884.847 649.437C857.312 631.318 840.544 603.03 834.543 564.572C831.719 538.318 832.072 512.618 835.602 487.473C838.779 462.697 843.545 437.367 849.899 411.483C842.839 407.415 832.602 404.272 819.187 402.053C805.773 400.204 791.829 400.574 777.356 403.163ZM1039.99 279.47C1013.87 295.741 994.103 314.97 980.688 337.156C966.921 359.343 955.448 383.194 946.27 408.709C970.628 425.349 989.16 447.351 1001.87 474.715C1006.81 468.799 1013.34 453.453 1021.46 428.678C1029.23 404.272 1035.58 377.832 1040.52 349.359C1045.11 320.886 1044.94 297.59 1039.99 279.47ZM930.385 470.833C925.443 484.884 922.795 501.525 922.442 520.753C921.736 540.352 922.619 558.471 925.09 575.111C927.561 592.121 930.914 603.954 935.15 610.61C955.978 578.439 954.389 531.847 930.385 470.833Z" fill="#FDC1C5"/>
</g>
<g filter="url(#filter3_dd_501_769)">
<path d="M1682 6157.13C1682 6157.13 1708.5 6163.42 1733.24 6147.63C1757.99 6131.84 1760.01 6172.63 1777.73 6172.63C1795.44 6172.63 1804.49 6157.13 1822.21 6157.13C1839.93 6157.13 1848.98 6172.63 1866.69 6172.63C1884.41 6172.63 1881.82 6147.63 1911.18 6147.63C1940.53 6147.63 1932.83 6165.55 1958.05 6170.87" stroke="#FD5956" stroke-width="4" stroke-linecap="round" stroke-dasharray="12 12"/>
</g>
<path d="M1225.29 912.679C1225.68 912.288 1226.32 912.288 1226.71 912.679L1233.07 919.043C1233.46 919.433 1233.46 920.066 1233.07 920.457C1232.68 920.847 1232.05 920.847 1231.66 920.457L1226 914.8L1220.34 920.457C1219.95 920.847 1219.32 920.847 1218.93 920.457C1218.54 920.066 1218.54 919.433 1218.93 919.043L1225.29 912.679ZM1673 1047.39L1672.35 1046.62L1673 1047.39ZM1799.19 1032.88L1799.03 1031.89L1799.19 1032.88ZM1501.5 861.386V862.386V861.386ZM1227 913.386C1227 915.58 1227.02 917.729 1227.05 919.833L1225.05 919.865C1225.02 917.75 1225 915.59 1225 913.386H1227ZM1227.45 931.936C1227.67 936.288 1227.98 940.421 1228.37 944.343L1226.37 944.539C1225.99 940.583 1225.68 936.419 1225.45 932.039L1227.45 931.936ZM1229.9 956.386C1230.57 960.623 1231.36 964.555 1232.25 968.198L1230.31 968.674C1229.4 964.973 1228.6 960.986 1227.92 956.7L1229.9 956.386ZM1235.8 979.781C1237.39 983.962 1239.17 987.598 1241.13 990.732L1239.43 991.791C1237.4 988.531 1235.56 984.775 1233.93 980.491L1235.8 979.781ZM1248.86 999.884C1252.01 1002.55 1255.45 1004.42 1259.15 1005.58L1258.55 1007.49C1254.59 1006.25 1250.92 1004.25 1247.57 1001.41L1248.86 999.884ZM1270.9 1007.03C1274.69 1006.88 1278.68 1006.23 1282.85 1005.12L1283.37 1007.05C1279.08 1008.19 1274.94 1008.88 1270.98 1009.03L1270.9 1007.03ZM1294.35 1001.13C1297.92 999.625 1301.59 997.867 1305.34 995.881L1306.28 997.649C1302.48 999.658 1298.76 1001.44 1295.12 1002.97L1294.35 1001.13ZM1315.97 989.806C1319.36 987.733 1322.81 985.512 1326.29 983.164L1327.41 984.823C1323.9 987.185 1320.43 989.423 1317.01 991.513L1315.97 989.806ZM1336.37 976.12C1339.63 973.765 1342.91 971.321 1346.22 968.805L1347.43 970.396C1344.11 972.921 1340.81 975.375 1337.54 977.741L1336.37 976.12ZM1355.91 961.285C1359.09 958.769 1362.29 956.202 1365.5 953.598L1366.76 955.151C1363.55 957.759 1360.34 960.332 1357.15 962.855L1355.91 961.285ZM1375.01 945.792C1378.16 943.181 1381.31 940.549 1384.46 937.91L1385.75 939.443C1382.6 942.084 1379.44 944.718 1376.28 947.332L1375.01 945.792ZM1393.88 929.997C1397.03 927.344 1400.17 924.698 1403.29 922.073L1404.58 923.604C1401.46 926.229 1398.32 928.874 1395.17 931.527L1393.88 929.997ZM1412.75 914.162C1415.94 911.503 1419.11 908.88 1422.26 906.311L1423.52 907.859C1420.39 910.424 1417.22 913.042 1414.03 915.699L1412.75 914.162ZM1431.85 898.567C1435.14 895.957 1438.38 893.425 1441.58 890.989L1442.79 892.579C1439.61 895.006 1436.37 897.53 1433.1 900.133L1431.85 898.567ZM1451.49 883.648C1454.96 881.163 1458.36 878.824 1461.68 876.658L1462.78 878.333C1459.48 880.481 1456.11 882.803 1452.66 885.274L1451.49 883.648ZM1472.27 870.216C1476.11 868.064 1479.82 866.214 1483.38 864.718L1484.15 866.562C1480.68 868.022 1477.04 869.837 1473.24 871.961L1472.27 870.216ZM1495.25 860.999C1497.41 860.597 1499.5 860.386 1501.5 860.386V862.386C1499.64 862.386 1497.68 862.582 1495.62 862.965L1495.25 860.999ZM1501.5 860.386C1503.53 860.386 1505.52 860.476 1507.46 860.654L1507.28 862.646C1505.4 862.474 1503.47 862.386 1501.5 862.386V860.386ZM1518.95 862.859C1522.77 864.002 1526.37 865.522 1529.77 867.378L1528.81 869.134C1525.53 867.342 1522.06 865.877 1518.38 864.774L1518.95 862.859ZM1539.47 873.963C1542.44 876.407 1545.23 879.134 1547.87 882.104L1546.38 883.432C1543.8 880.532 1541.08 877.879 1538.2 875.507L1539.47 873.963ZM1555.07 891.314C1557.24 894.45 1559.29 897.762 1561.24 901.221L1559.5 902.203C1557.57 898.792 1555.55 895.532 1553.42 892.453L1555.07 891.314ZM1566.58 911.564C1568.22 915.009 1569.78 918.556 1571.27 922.183L1569.42 922.944C1567.94 919.346 1566.4 915.832 1564.78 912.423L1566.58 911.564ZM1575.47 933C1576.79 936.605 1578.05 940.262 1579.28 943.951L1577.38 944.582C1576.16 940.909 1574.9 937.271 1573.59 933.688L1575.47 933ZM1582.82 954.987C1583.96 958.678 1585.07 962.381 1586.16 966.076L1584.24 966.642C1583.15 962.953 1582.04 959.258 1580.91 955.578L1582.82 954.987ZM1589.39 977.192C1590.47 980.935 1591.53 984.646 1592.59 988.31L1590.67 988.867C1589.61 985.201 1588.55 981.485 1587.47 977.746L1589.39 977.192ZM1595.86 999.406C1596.99 1003.18 1598.13 1006.86 1599.29 1010.44L1597.39 1011.06C1596.22 1007.46 1595.08 1003.76 1593.94 999.982L1595.86 999.406ZM1603.02 1021.37C1604.38 1025.11 1605.78 1028.69 1607.24 1032.06L1605.4 1032.85C1603.93 1029.44 1602.51 1025.82 1601.14 1022.05L1603.02 1021.37ZM1612.23 1042.34C1614.22 1045.93 1616.31 1049.12 1618.54 1051.86L1616.99 1053.12C1614.67 1050.27 1612.51 1046.97 1610.49 1043.31L1612.23 1042.34ZM1626.77 1059.41C1629.93 1061.4 1633.35 1062.61 1637.1 1062.92L1636.94 1064.91C1632.85 1064.58 1629.12 1063.25 1625.7 1061.1L1626.77 1059.41ZM1648.16 1061.47C1651.32 1060.45 1654.7 1058.92 1658.31 1056.8L1659.32 1058.53C1655.6 1060.7 1652.09 1062.3 1648.77 1063.37L1648.16 1061.47ZM1667.72 1050.39C1669.23 1049.22 1670.77 1047.97 1672.35 1046.62L1673.65 1048.15C1672.04 1049.51 1670.48 1050.78 1668.94 1051.97L1667.72 1050.39ZM1672.35 1046.62C1673.89 1045.32 1675.41 1044.01 1676.91 1042.7L1678.22 1044.21C1676.72 1045.52 1675.19 1046.84 1673.65 1048.15L1672.35 1046.62ZM1685.66 1034.87C1688.59 1032.18 1691.44 1029.49 1694.21 1026.81L1695.6 1028.24C1692.82 1030.94 1689.96 1033.64 1687.02 1036.35L1685.66 1034.87ZM1702.49 1018.53C1705.28 1015.66 1707.97 1012.8 1710.57 1009.95L1712.05 1011.3C1709.43 1014.16 1706.73 1017.04 1703.93 1019.92L1702.49 1018.53ZM1718.27 1001.22C1720.88 998.159 1723.39 995.11 1725.79 992.073L1727.36 993.315C1724.94 996.371 1722.42 999.439 1719.79 1002.52L1718.27 1001.22ZM1732.85 982.807C1735.21 979.578 1737.46 976.363 1739.6 973.166L1741.27 974.279C1739.11 977.499 1736.84 980.736 1734.46 983.988L1732.85 982.807ZM1745.93 963.255C1747.99 959.866 1749.92 956.499 1751.74 953.157L1753.49 954.112C1751.66 957.483 1749.71 960.877 1747.64 964.293L1745.93 963.255ZM1757.07 942.702C1758.8 939.086 1760.39 935.502 1761.84 931.954L1763.69 932.714C1762.22 936.297 1760.62 939.915 1758.88 943.564L1757.07 942.702ZM1765.96 921C1767.24 917.231 1768.38 913.508 1769.37 909.836L1771.3 910.356C1770.3 914.071 1769.15 917.835 1767.85 921.645L1765.96 921ZM1772 898.476C1772.76 894.556 1773.35 890.702 1773.78 886.92L1775.77 887.147C1775.33 890.981 1774.73 894.887 1773.96 898.857L1772 898.476ZM1774.62 875.249C1774.74 871.259 1774.68 867.364 1774.44 863.57L1776.44 863.445C1776.68 867.301 1776.74 871.258 1776.62 875.307L1774.62 875.249ZM1773.14 851.98C1772.5 848.05 1771.66 844.252 1770.65 840.595L1772.58 840.061C1773.61 843.789 1774.46 847.658 1775.12 851.658L1773.14 851.98ZM1766.88 829.545C1765.37 825.864 1763.67 822.366 1761.79 819.063L1763.53 818.074C1765.45 821.453 1767.19 825.028 1768.73 828.787L1766.88 829.545ZM1755.35 809.384C1752.94 806.264 1750.35 803.388 1747.6 800.773L1748.97 799.323C1751.8 802.011 1754.46 804.962 1756.94 808.161L1755.35 809.384ZM1738.55 793.496C1735.31 791.312 1731.93 789.439 1728.42 787.896L1729.22 786.065C1732.84 787.657 1736.34 789.589 1739.67 791.838L1738.55 793.496ZM1717.44 784.247C1713.7 783.386 1709.88 782.876 1705.98 782.737L1706.06 780.739C1710.08 780.882 1714.03 781.408 1717.89 782.298L1717.44 784.247ZM1694.43 783.409C1690.69 783.975 1686.93 784.882 1683.15 786.149L1682.52 784.252C1686.4 782.95 1690.28 782.015 1694.13 781.432L1694.43 783.409ZM1672.51 790.684C1669.19 792.406 1665.88 794.419 1662.6 796.735L1661.45 795.101C1664.8 792.734 1668.19 790.674 1671.59 788.909L1672.51 790.684ZM1653.51 804.006C1652.07 805.305 1650.63 806.667 1649.21 808.093L1647.79 806.679C1649.24 805.228 1650.71 803.841 1652.18 802.519L1653.51 804.006ZM1649.21 808.093C1647.93 809.372 1646.67 810.833 1645.44 812.464L1643.84 811.259C1645.12 809.564 1646.44 808.031 1647.79 806.679L1649.21 808.093ZM1639.35 822.354C1637.68 825.621 1636.11 829.213 1634.66 833.084L1632.78 832.381C1634.26 828.448 1635.86 824.786 1637.57 821.444L1639.35 822.354ZM1631.01 844.27C1629.98 847.938 1629.05 851.772 1628.23 855.744L1626.27 855.341C1627.1 851.325 1628.04 847.444 1629.08 843.729L1631.01 844.27ZM1626.24 867.324C1625.7 871.143 1625.27 875.053 1624.95 879.032L1622.96 878.873C1623.28 874.855 1623.72 870.905 1624.26 867.047L1626.24 867.324ZM1624.36 890.804C1624.28 894.697 1624.32 898.632 1624.47 902.592L1622.47 902.669C1622.32 898.669 1622.28 894.694 1622.36 890.763L1624.36 890.804ZM1625.28 914.349C1625.67 918.242 1626.18 922.14 1626.82 926.026L1624.85 926.353C1624.2 922.423 1623.68 918.482 1623.29 914.548L1625.28 914.349ZM1629.13 937.568C1630.04 941.383 1631.08 945.169 1632.26 948.909L1630.35 949.513C1629.16 945.723 1628.1 941.89 1627.19 938.029L1629.13 937.568ZM1636.25 959.971C1637.72 963.6 1639.35 967.166 1641.14 970.654L1639.36 971.566C1637.54 968.025 1635.89 964.405 1634.4 960.725L1636.25 959.971ZM1646.97 980.843C1649.07 984.133 1651.32 987.328 1653.75 990.413L1652.18 991.651C1649.71 988.512 1647.41 985.262 1645.28 981.918L1646.97 980.843ZM1661.48 999.232C1664.18 1002 1667.05 1004.66 1670.1 1007.18L1668.82 1008.72C1665.72 1006.15 1662.8 1003.45 1660.05 1000.63L1661.48 999.232ZM1679.52 1014.15C1682.72 1016.27 1686.09 1018.25 1689.62 1020.09L1688.7 1021.86C1685.1 1019.99 1681.67 1017.97 1678.41 1015.82L1679.52 1014.15ZM1700.28 1024.97C1703.82 1026.39 1707.51 1027.68 1711.35 1028.83L1710.78 1030.75C1706.88 1029.58 1703.13 1028.27 1699.53 1026.83L1700.28 1024.97ZM1722.74 1031.71C1726.49 1032.5 1730.36 1033.16 1734.37 1033.69L1734.11 1035.68C1730.05 1035.14 1726.13 1034.47 1722.33 1033.67L1722.74 1031.71ZM1746.14 1034.85C1749.92 1035.1 1753.81 1035.23 1757.81 1035.26L1757.8 1037.26C1753.76 1037.23 1749.83 1037.09 1746.01 1036.85L1746.14 1034.85ZM1769.56 1035C1773.43 1034.82 1777.39 1034.54 1781.44 1034.15L1781.63 1036.14C1777.55 1036.53 1773.55 1036.82 1769.66 1037L1769.56 1035ZM1793.04 1032.79C1795.02 1032.51 1797.01 1032.22 1799.03 1031.89L1799.35 1033.87C1797.31 1034.19 1795.3 1034.49 1793.32 1034.77L1793.04 1032.79ZM1799.03 1031.89C1801.1 1031.56 1803.1 1031.18 1805.02 1030.75L1805.46 1032.7C1803.49 1033.14 1801.46 1033.53 1799.35 1033.87L1799.03 1031.89ZM1816.03 1027.43C1819.82 1025.94 1823.22 1024.2 1826.27 1022.22L1827.36 1023.9C1824.19 1025.96 1820.67 1027.76 1816.76 1029.29L1816.03 1027.43ZM1835.06 1014.86C1837.68 1012.04 1839.89 1008.93 1841.74 1005.56L1843.5 1006.52C1841.57 1010.03 1839.26 1013.28 1836.53 1016.22L1835.06 1014.86ZM1846.16 994.93C1847.25 991.358 1848.06 987.576 1848.62 983.604L1850.6 983.886C1850.02 987.947 1849.19 991.829 1848.07 995.512L1846.16 994.93ZM1849.6 971.982C1849.72 968.201 1849.68 964.289 1849.49 960.259L1851.49 960.167C1851.68 964.241 1851.73 968.206 1851.6 972.047L1849.6 971.982ZM1848.6 948.525C1848.21 944.748 1847.73 940.889 1847.16 936.958L1849.14 936.672C1849.71 940.626 1850.2 944.512 1850.59 948.319L1848.6 948.525ZM1845.3 925.383C1844.64 921.574 1843.92 917.711 1843.15 913.801L1845.11 913.416C1845.88 917.337 1846.61 921.215 1847.27 925.039L1845.3 925.383ZM1840.79 902.246C1840 898.458 1839.17 894.635 1838.33 890.784L1840.28 890.356C1841.12 894.211 1841.95 898.039 1842.75 901.834L1840.79 902.246ZM1835.79 879.28C1834.94 875.46 1834.09 871.619 1833.24 867.764L1835.19 867.335C1836.04 871.187 1836.89 875.026 1837.74 878.847L1835.79 879.28ZM1830.74 856.267C1829.92 852.424 1829.12 848.574 1828.34 844.722L1830.3 844.326C1831.08 848.169 1831.88 852.012 1832.7 855.849L1830.74 856.267ZM1826.09 833.166C1825.37 829.281 1824.68 825.402 1824.04 821.534L1826.01 821.208C1826.65 825.061 1827.33 828.926 1828.05 832.799L1826.09 833.166ZM1822.26 809.86C1821.72 805.944 1821.24 802.047 1820.83 798.176L1822.82 797.967C1823.23 801.814 1823.7 805.689 1824.24 809.586L1822.26 809.86ZM1819.82 786.387C1819.56 782.405 1819.39 778.459 1819.33 774.556L1821.33 774.524C1821.39 778.392 1821.56 782.305 1821.82 786.257L1819.82 786.387ZM1819.49 762.748C1819.66 758.77 1819.96 754.849 1820.41 750.991L1822.4 751.222C1821.96 755.028 1821.66 758.902 1821.48 762.835L1819.49 762.748ZM1822.28 739.246C1823.09 735.33 1824.07 731.496 1825.25 727.755L1827.16 728.356C1826 732.028 1825.04 735.795 1824.24 739.649L1822.28 739.246ZM1829.47 716.673C1831.09 713.065 1832.94 709.566 1835.03 706.187L1836.73 707.238C1834.69 710.541 1832.88 713.963 1831.29 717.495L1829.47 716.673ZM1841.98 696.494C1844.45 693.505 1847.15 690.638 1850.11 687.902L1851.47 689.37C1848.58 692.046 1845.93 694.848 1843.52 697.768L1841.98 696.494ZM1859.26 680.444C1862.39 678.198 1865.74 676.068 1869.31 674.061L1870.29 675.805C1866.78 677.777 1863.5 679.867 1860.43 682.069L1859.26 680.444ZM1879.96 668.758C1883.4 667.24 1887.03 665.817 1890.83 664.494L1891.49 666.383C1887.73 667.689 1884.16 669.092 1880.77 670.588L1879.96 668.758ZM1902.38 660.943C1905.97 659.971 1909.71 659.077 1913.59 658.263L1914 660.22C1910.16 661.027 1906.46 661.912 1902.9 662.874L1902.38 660.943ZM1925.46 656.1C1929.15 655.523 1932.95 655.011 1936.87 654.565L1937.1 656.552C1933.2 656.995 1929.43 657.503 1925.77 658.076L1925.46 656.1ZM1949.01 653.428C1952.7 653.152 1956.49 652.93 1960.38 652.763L1960.47 654.762C1956.6 654.928 1952.83 655.149 1949.16 655.423L1949.01 653.428ZM1972.31 652.429C1974.35 652.401 1976.41 652.386 1978.5 652.386V654.386C1976.42 654.386 1974.36 654.4 1972.34 654.428L1972.31 652.429Z" fill="#FD5956"/>
<defs>
<filter id="filter0_dd_501_769" x="998" y="1382" width="144" height="344" filterUnits="userSpaceOnUse" color-interpolation-filters="sRGB">
<feFlood flood-opacity="0" result="BackgroundImageFix"/>
<feColorMatrix in="SourceAlpha" type="matrix" values="0 0 0 0 0 0 0 0 0 0 0 0 0 0 0 0 0 0 127 0" result="hardAlpha"/>
<feOffset dy="12"/>
<feGaussianBlur stdDeviation="21"/>
<feColorMatrix type="matrix" values="0 0 0 0 1 0 0 0 0 0.403922 0 0 0 0 0 0 0 0 0.22 0"/>
<feBlend mode="normal" in2="BackgroundImageFix" result="effect1_dropShadow_501_769"/>
<feColorMatrix in="SourceAlpha" type="matrix" values="0 0 0 0 0 0 0 0 0 0 0 0 0 0 0 0 0 0 127 0" result="hardAlpha"/>
<feOffset dy="8"/>
<feGaussianBlur stdDeviation="9"/>
<feColorMatrix type="matrix" values="0 0 0 0 1 0 0 0 0 0.403922 0 0 0 0 0 0 0 0 0.32 0"/>
<feBlend mode="normal" in2="effect1_dropShadow_501_769" result="effect2_dropShadow_501_769"/>
<feBlend mode="normal" in="SourceGraphic" in2="effect2_dropShadow_501_769" result="shape"/>
</filter>
<filter id="filter1_dd_501_769" x="2435" y="2256" width="158" height="158" filterUnits="userSpaceOnUse" color-interpolation-filters="sRGB">
<feFlood flood-opacity="0" result="BackgroundImageFix"/>
<feColorMatrix in="SourceAlpha" type="matrix" values="0 0 0 0 0 0 0 0 0 0 0 0 0 0 0 0 0 0 127 0" result="hardAlpha"/>
<feMorphology radius="6" operator="dilate" in="SourceAlpha" result="effect1_dropShadow_501_769"/>
<feOffset dy="24"/>
<feGaussianBlur stdDeviation="24"/>
<feColorMatrix type="matrix" values="0 0 0 0 0.992157 0 0 0 0 0.756863 0 0 0 0 0.772549 0 0 0 0.18 0"/>
<feBlend mode="multiply" in2="BackgroundImageFix" result="effect1_dropShadow_501_769"/>
<feColorMatrix in="SourceAlpha" type="matrix" values="0 0 0 0 0 0 0 0 0 0 0 0 0 0 0 0 0 0 127 0" result="hardAlpha"/>
<feMorphology radius="6" operator="dilate" in="SourceAlpha" result="effect2_dropShadow_501_769"/>
<feOffset dy="12"/>
<feGaussianBlur stdDeviation="12"/>
<feColorMatrix type="matrix" values="0 0 0 0 0.992157 0 0 0 0 0.756863 0 0 0 0 0.772549 0 0 0 0.18 0"/>
<feBlend mode="multiply" in2="effect1_dropShadow_501_769" result="effect2_dropShadow_501_769"/>
<feBlend mode="normal" in="SourceGraphic" in2="effect2_dropShadow_501_769" result="shape"/>
</filter>
<filter id="filter2_dd_501_769" x="2293.05" y="5157.43" width="344.398" height="236.157" filterUnits="userSpaceOnUse" color-interpolation-filters="sRGB">
<feFlood flood-opacity="0" result="BackgroundImageFix"/>
<feColorMatrix in="SourceAlpha" type="matrix" values="0 0 0 0 0 0 0 0 0 0 0 0 0 0 0 0 0 0 127 0" result="hardAlpha"/>
<feOffset dy="12"/>
<feGaussianBlur stdDeviation="21"/>
<feColorMatrix type="matrix" values="0 0 0 0 1 0 0 0 0 0.403922 0 0 0 0 0 0 0 0 0.22 0"/>
<feBlend mode="normal" in2="BackgroundImageFix" result="effect1_dropShadow_501_769"/>
<feColorMatrix in="SourceAlpha" type="matrix" values="0 0 0 0 0 0 0 0 0 0 0 0 0 0 0 0 0 0 127 0" result="hardAlpha"/>
<feOffset dy="8"/>
<feGaussianBlur stdDeviation="9"/>
<feColorMatrix type="matrix" values="0 0 0 0 1 0 0 0 0 0.403922 0 0 0 0 0 0 0 0 0.32 0"/>
<feBlend mode="normal" in2="effect1_dropShadow_501_769" result="effect2_dropShadow_501_769"/>
<feBlend mode="normal" in="SourceGraphic" in2="effect2_dropShadow_501_769" result="shape"/>
</filter>
<filter id="filter3_dd_501_769" x="1638" y="6112.57" width="364.047" height="116.061" filterUnits="userSpaceOnUse" color-interpolation-filters="sRGB">
<feFlood flood-opacity="0" result="BackgroundImageFix"/>
<feColorMatrix in="SourceAlpha" type="matrix" values="0 0 0 0 0 0 0 0 0 0 0 0 0 0 0 0 0 0 127 0" result="hardAlpha"/>
<feOffset dy="12"/>
<feGaussianBlur stdDeviation="21"/>
<feColorMatrix type="matrix" values="0 0 0 0 1 0 0 0 0 0.403922 0 0 0 0 0 0 0 0 0.22 0"/>
<feBlend mode="normal" in2="BackgroundImageFix" result="effect1_dropShadow_501_769"/>
<feColorMatrix in="SourceAlpha" type="matrix" values="0 0 0 0 0 0 0 0 0 0 0 0 0 0 0 0 0 0 127 0" result="hardAlpha"/>
<feOffset dy="8"/>
<feGaussianBlur stdDeviation="9"/>
<feColorMatrix type="matrix" values="0 0 0 0 1 0 0 0 0 0.403922 0 0 0 0 0 0 0 0 0.32 0"/>
<feBlend mode="normal" in2="effect1_dropShadow_501_769" result="effect2_dropShadow_501_769"/>
<feBlend mode="normal" in="SourceGraphic" in2="effect2_dropShadow_501_769" result="shape"/>
</filter>
<linearGradient id="paint0_linear_501_769" x1="2426.34" y1="2077.8" x2="3517.68" y2="2366.13" gradientUnits="userSpaceOnUse">
<stop stop-color="#FDC1C5" stop-opacity="0"/>
<stop offset="0.734375" stop-color="#FDC1C5"/>
</linearGradient>
<linearGradient id="paint1_linear_501_769" x1="187.399" y1="1319.52" x2="120.522" y2="2966.99" gradientUnits="userSpaceOnUse">
<stop offset="0.401042" stop-color="#FDC1C5"/>
<stop offset="0.958345" stop-color="#FDC1C5" stop-opacity="0"/>
</linearGradient>
<linearGradient id="paint2_linear_501_769" x1="177.399" y1="3581.52" x2="110.522" y2="5228.99" gradientUnits="userSpaceOnUse">
<stop offset="0.40404" stop-color="#FDC1C5"/>
<stop offset="0.958345" stop-color="#FDC1C5" stop-opacity="0"/>
</linearGradient>
<linearGradient id="paint3_linear_501_769" x1="2426.34" y1="4179.8" x2="3517.68" y2="4468.13" gradientUnits="userSpaceOnUse">
<stop stop-color="#FDC1C5" stop-opacity="0"/>
<stop offset="0.734375" stop-color="#FDC1C5"/>
</linearGradient>
</defs>
</svg>
